<svg width="194" height="35" viewBox="0 0 194 35" fill="none" xmlns="http://www.w3.org/2000/svg">
<mask id="path-1-inside-1_12_223" fill="white">
<path d="M1.89805 14.5873C2.71557 15.371 3.71631 15.9941 4.44223 16.858C10.6325 24.5767 19.9445 28.0603 30.4121 29.6742C34.0156 30.2311 38.1922 29.9286 41.9718 29.0455C52.7751 26.6511 62.749 22.2691 71.5553 15.7674C74.0969 13.8977 76.319 11.5936 78.2122 9.00624C77.2373 9.3604 76.1756 9.71928 75.196 10.149C72.349 11.3578 69.4973 12.6422 66.5728 13.7046C65.3325 14.1485 63.8549 14.2289 62.469 14.229C61.9475 14.2573 61.2075 13.62 61.1487 13.1715C61.09 12.723 61.6631 11.8637 62.1024 11.7645C69.6122 9.3987 76.2786 5.27191 83.173 1.65972C85.5901 0.398998 87.0489 0.620793 87.9651 2.60363C90.1712 7.52767 90.9679 12.8295 90.4514 18.3533C90.442 18.5044 90.0803 18.7499 89.5306 19.2315C84.5059 17.8486 86.3707 12.929 84.0896 9.21356C83.4248 10.1531 82.9433 10.9321 82.3843 11.5648C70.7054 23.8691 55.8057 30.8527 38.8032 34.036C36.2592 34.5508 33.4873 34.551 30.9033 34.3151C21.4318 33.3999 13.1299 30.3883 6.45119 24.9547C4.30872 23.1891 2.81221 20.7862 1.30632 18.5343C0.667315 17.6656 0.747106 16.3814 0.552069 15.3381C1.00073 15.0878 1.44939 14.8376 1.89805 14.5873Z"/>
</mask>
<path d="M1.89805 14.5873C2.71557 15.371 3.71631 15.9941 4.44223 16.858C10.6325 24.5767 19.9445 28.0603 30.4121 29.6742C34.0156 30.2311 38.1922 29.9286 41.9718 29.0455C52.7751 26.6511 62.749 22.2691 71.5553 15.7674C74.0969 13.8977 76.319 11.5936 78.2122 9.00624C77.2373 9.3604 76.1756 9.71928 75.196 10.149C72.349 11.3578 69.4973 12.6422 66.5728 13.7046C65.3325 14.1485 63.8549 14.2289 62.469 14.229C61.9475 14.2573 61.2075 13.62 61.1487 13.1715C61.09 12.723 61.6631 11.8637 62.1024 11.7645C69.6122 9.3987 76.2786 5.27191 83.173 1.65972C85.5901 0.398998 87.0489 0.620793 87.9651 2.60363C90.1712 7.52767 90.9679 12.8295 90.4514 18.3533C90.442 18.5044 90.0803 18.7499 89.5306 19.2315C84.5059 17.8486 86.3707 12.929 84.0896 9.21356C83.4248 10.1531 82.9433 10.9321 82.3843 11.5648C70.7054 23.8691 55.8057 30.8527 38.8032 34.036C36.2592 34.5508 33.4873 34.551 30.9033 34.3151C21.4318 33.3999 13.1299 30.3883 6.45119 24.9547C4.30872 23.1891 2.81221 20.7862 1.30632 18.5343C0.667315 17.6656 0.747106 16.3814 0.552069 15.3381C1.00073 15.0878 1.44939 14.8376 1.89805 14.5873Z" fill="#00E0CA"/>
<path d="M194.91 0.413743C195.139 -0.0890386 194.917 -0.681889 194.414 -0.910427L186.22 -4.63465C185.718 -4.86319 185.125 -4.64087 184.896 -4.13809C184.668 -3.63531 184.89 -3.04246 185.393 -2.81392L192.676 0.496504L189.365 7.77944C189.137 8.28222 189.359 8.87507 189.862 9.10361C190.365 9.33214 190.958 9.10982 191.186 8.60704L194.91 0.413743ZM154.095 16.0323L194.351 0.936269L193.649 -0.936389L153.393 14.1596L154.095 16.0323ZM1.89805 14.5873L3.28204 13.1435L2.21484 12.1205L0.923787 12.8406L1.89805 14.5873ZM4.44223 16.858L6.00245 15.6067L5.98815 15.5889L5.97344 15.5714L4.44223 16.858ZM30.4121 29.6742L30.7175 27.6977L30.7168 27.6976L30.4121 29.6742ZM41.9718 29.0455L41.5391 27.0929L41.5279 27.0953L41.5168 27.0979L41.9718 29.0455ZM71.5553 15.7674L70.3701 14.1564L70.3674 14.1585L71.5553 15.7674ZM78.2122 9.00624L79.8262 10.1873L83.7085 4.88155L77.5292 7.12645L78.2122 9.00624ZM75.196 10.149L75.9777 11.9899L75.9886 11.9853L75.9995 11.9805L75.196 10.149ZM66.5728 13.7046L67.2467 15.5877L67.2557 15.5844L66.5728 13.7046ZM62.469 14.229L62.4688 12.229L62.4145 12.229L62.3603 12.2319L62.469 14.229ZM62.1024 11.7645L62.5428 13.7154L62.624 13.6971L62.7033 13.6721L62.1024 11.7645ZM83.173 1.65972L82.248 -0.113564L82.2448 -0.111846L83.173 1.65972ZM87.9651 2.60363L89.7903 1.7859L89.7856 1.77526L89.7807 1.76467L87.9651 2.60363ZM90.4514 18.3533L88.4601 18.1671L88.4572 18.1982L88.4553 18.2293L90.4514 18.3533ZM89.5306 19.2315L88.9999 21.1598L90.0385 21.4457L90.8487 20.7358L89.5306 19.2315ZM84.0896 9.21356L85.794 8.1671L84.2078 5.58364L82.4569 8.05844L84.0896 9.21356ZM82.3843 11.5648L83.8349 12.9417L83.8594 12.9158L83.883 12.8891L82.3843 11.5648ZM38.8032 34.036L38.4352 32.0702L38.4208 32.0728L38.4066 32.0757L38.8032 34.036ZM30.9033 34.3151L30.7109 36.3059L30.7215 36.3068L30.9033 34.3151ZM6.45119 24.9547L5.17923 26.4982L5.189 26.5061L6.45119 24.9547ZM1.30632 18.5343L2.96884 17.4225L2.94392 17.3852L2.91737 17.3491L1.30632 18.5343ZM0.552069 15.3381L-0.422189 13.5914L-1.67813 14.2919L-1.41388 15.7056L0.552069 15.3381ZM0.514053 16.0311C0.998458 16.4954 1.55288 16.9261 1.93973 17.2419C2.3696 17.5928 2.67655 17.8656 2.91101 18.1446L5.97344 15.5714C5.48198 14.9865 4.92561 14.5158 4.46925 14.1432C3.96987 13.7356 3.61516 13.4628 3.28204 13.1435L0.514053 16.0311ZM2.882 18.1093C9.52913 26.3976 19.4327 30.005 30.1073 31.6509L30.7168 27.6976C20.4562 26.1156 11.7359 22.7558 6.00245 15.6067L2.882 18.1093ZM30.1066 31.6508C34.0165 32.2549 38.4565 31.9207 42.4269 30.993L41.5168 27.0979C37.9279 27.9365 34.0147 28.2072 30.7175 27.6977L30.1066 31.6508ZM42.4046 30.9981C53.4615 28.5475 63.6966 24.0556 72.7432 17.3764L70.3674 14.1585C61.8014 20.4827 52.0887 24.7547 41.5391 27.0929L42.4046 30.9981ZM72.7405 17.3785C75.4653 15.3739 77.8277 12.9185 79.8262 10.1873L76.5981 7.82521C74.8102 10.2686 72.7285 12.4214 70.3701 14.1564L72.7405 17.3785ZM77.5292 7.12645C76.6147 7.4587 75.4507 7.85328 74.3926 8.31745L75.9995 11.9805C76.9004 11.5853 77.8599 11.2621 78.8951 10.886L77.5292 7.12645ZM74.4144 8.30804C71.5136 9.53967 68.7482 10.7864 65.8899 11.8248L67.2557 15.5844C70.2465 14.4979 73.1844 13.1759 75.9777 11.9899L74.4144 8.30804ZM65.8989 11.8216C65.0076 12.1406 63.83 12.2289 62.4688 12.229L62.4691 16.229C63.8798 16.2289 65.6574 16.1565 67.2467 15.5877L65.8989 11.8216ZM62.3603 12.2319C62.6409 12.2167 62.8167 12.2908 62.8518 12.3061C62.9017 12.3279 62.9143 12.3414 62.9059 12.3345C62.8972 12.3274 62.9124 12.3366 62.9442 12.3819C62.9595 12.4037 63.089 12.5854 63.1318 12.9117L59.1657 13.4313C59.2378 13.9819 59.4819 14.4114 59.6688 14.678C59.8721 14.968 60.1159 15.2189 60.3648 15.4236C60.7739 15.7602 61.5787 16.2803 62.5776 16.226L62.3603 12.2319ZM63.1318 12.9117C63.156 13.0964 63.1405 13.2364 63.1285 13.3095C63.1159 13.3867 63.0994 13.436 63.0927 13.4546C63.0806 13.488 63.0791 13.4818 63.0975 13.4545C63.1163 13.4265 63.1196 13.4304 63.086 13.4602C63.0676 13.4765 63.0219 13.5148 62.9465 13.5592C62.8745 13.6015 62.738 13.6714 62.5428 13.7154L61.6619 9.81364C61.0852 9.94385 60.6675 10.2589 60.4335 10.4661C60.1708 10.6989 59.9521 10.9643 59.7801 11.2196C59.6076 11.4755 59.4463 11.7745 59.3297 12.0982C59.2255 12.3873 59.0923 12.8715 59.1657 13.4313L63.1318 12.9117ZM62.7033 13.6721C70.4383 11.2353 77.3775 6.95406 84.1012 3.43129L82.2448 -0.111846C75.1798 3.58977 68.7861 7.56206 61.5014 9.85696L62.7033 13.6721ZM84.0979 3.43301C85.2022 2.857 85.6646 2.86269 85.7652 2.88145C85.7728 2.88285 85.7767 2.8783 85.8135 2.91222C85.8698 2.96418 85.995 3.10799 86.1496 3.44258L89.7807 1.76467C89.165 0.432424 88.1445 -0.743812 86.4985 -1.05077C85.0364 -1.32343 83.5608 -0.798282 82.2481 -0.113561L84.0979 3.43301ZM86.1399 3.42135C88.1947 8.00772 88.9469 12.9607 88.4601 18.1671L92.4427 18.5395C92.9889 12.6983 92.1477 7.04762 89.7903 1.7859L86.1399 3.42135ZM88.4553 18.2293C88.4774 17.8726 88.5941 17.6095 88.6693 17.4692C88.7459 17.3264 88.8222 17.2324 88.8541 17.1947C88.8732 17.1722 88.8882 17.156 88.897 17.1467C88.906 17.1373 88.9114 17.1321 88.9119 17.1316C88.9124 17.1311 88.9099 17.1335 88.9034 17.1394C88.897 17.1453 88.8879 17.1534 88.8756 17.1642C88.8178 17.2149 88.7452 17.2752 88.6222 17.378C88.508 17.4735 88.368 17.5911 88.2126 17.7273L90.8487 20.7358C90.9681 20.6311 91.0794 20.5375 91.188 20.4467C91.2876 20.3634 91.4092 20.2626 91.5117 20.1727C91.6044 20.0915 91.7622 19.9503 91.9077 19.7784C91.9967 19.6733 92.4026 19.2019 92.4476 18.4774L88.4553 18.2293ZM90.0614 17.3032C89.1557 17.054 88.7154 16.6983 88.447 16.3607C88.146 15.982 87.9227 15.4519 87.7263 14.6316C87.6288 14.2243 87.5473 13.7895 87.456 13.2912C87.3678 12.8091 87.2699 12.2642 87.1474 11.716C86.9012 10.6133 86.5298 9.36566 85.794 8.1671L82.3852 10.26C82.7899 10.9192 83.0408 11.6798 83.2436 12.5877C83.3456 13.0447 83.4288 13.5058 83.5214 14.0116C83.6111 14.5013 83.7102 15.0365 83.8362 15.5629C84.0868 16.6097 84.4821 17.801 85.3159 18.8499C86.1823 19.9397 87.3932 20.7176 88.9999 21.1598L90.0614 17.3032ZM82.4569 8.05844C81.6901 9.14226 81.3498 9.71515 80.8855 10.2405L83.883 12.8891C84.5369 12.1491 85.1596 11.164 85.7223 10.3687L82.4569 8.05844ZM80.9337 10.188C69.6028 22.1255 55.1153 28.9472 38.4352 32.0702L39.1713 36.0018C56.496 32.7582 71.808 25.6126 83.8349 12.9417L80.9337 10.188ZM38.4066 32.0757C36.12 32.5384 33.5586 32.5492 31.0851 32.3234L30.7215 36.3068C33.416 36.5528 36.3984 36.5632 39.1999 35.9963L38.4066 32.0757ZM31.0957 32.3244C21.9335 31.439 14.0279 28.5406 7.71337 23.4033L5.189 26.5061C12.232 32.2361 20.93 35.3607 30.7109 36.3058L31.0957 32.3244ZM7.72311 23.4113C5.86113 21.8768 4.54279 19.7762 2.96884 17.4225L-0.356205 19.646C1.08163 21.7961 2.75631 24.5014 5.17926 26.4981L7.72311 23.4113ZM2.91737 17.3491C2.89158 17.3141 2.81064 17.1704 2.74042 16.704C2.7064 16.4779 2.68349 16.2474 2.65107 15.9434C2.62123 15.6636 2.58279 15.3171 2.51802 14.9706L-1.41388 15.7056C-1.38113 15.8807 -1.3564 16.086 -1.32638 16.3676C-1.29894 16.6249 -1.26529 16.9654 -1.21501 17.2994C-1.11661 17.9531 -0.917952 18.8858 -0.304732 19.7194L2.91737 17.3491ZM1.52633 17.0847C1.75066 16.9596 1.97499 16.8345 2.19932 16.7093C2.42365 16.5842 2.64797 16.4591 2.8723 16.334L0.923787 12.8406C0.699457 12.9658 0.475128 13.0909 0.250799 13.216C0.0264691 13.3412 -0.19786 13.4663 -0.422189 13.5914L1.52633 17.0847Z" fill="#00E0CA" mask="url(#path-1-inside-1_12_223)"/>
</svg>
