<svg xmlns="http://www.w3.org/2000/svg" width="40" height="41" viewBox="0 0 40 41" fill="none">
  <path d="M10.725 16.3453C10.3786 16.0832 10.0313 15.9522 9.68482 15.9522H8.12768V25.3941H9.68571C10.0321 25.3941 10.3795 25.2631 10.7259 25.001C11.0723 24.7389 11.2455 24.3457 11.2455 23.8206V17.5257C11.2446 17.0015 11.0705 16.6074 10.725 16.3453ZM36.0804 0.412292H3.91964C1.75893 0.412292 0.00535714 2.18283 0 4.37092V36.9437C0.00535714 39.1318 1.75893 40.9024 3.91964 40.9024H36.0804C38.242 40.9024 39.9946 39.1318 40 36.9437V4.37092C39.9946 2.18283 38.2411 0.412292 36.0804 0.412292ZM13.7679 23.8378C13.7679 25.5378 12.7312 28.1136 9.45 28.1082H5.30714V13.154H9.5375C12.7018 13.154 13.7661 15.7262 13.767 17.4272L13.7679 23.8378ZM22.7571 15.8247H18V19.2971H20.908V21.9696H18V25.4411H22.758V28.1136H17.2063C16.2098 28.1399 15.3813 27.3427 15.3563 26.3341V15.0267C15.3321 14.0189 16.1205 13.182 17.1161 13.1567H22.758L22.7571 15.8247ZM32.0107 26.2446C30.8321 29.0238 28.7205 28.4706 27.775 26.2446L24.3348 13.1576H27.2429L29.8955 23.4356L32.5357 13.1576H35.4446L32.0107 26.2446Z" fill="#FDFDFD"/>
</svg>