<svg xmlns="http://www.w3.org/2000/svg" width="40" height="41" viewBox="0 0 40 41" fill="none">
<path d="M13.379 33.0148C13.379 33.1823 13.1935 33.3162 12.9597 33.3162C12.6935 33.3414 12.5081 33.2074 12.5081 33.0148C12.5081 32.8474 12.6935 32.7134 12.9274 32.7134C13.1694 32.6883 13.379 32.8223 13.379 33.0148ZM10.871 32.6381C10.8145 32.8055 10.9758 32.9981 11.2177 33.0483C11.4274 33.132 11.6694 33.0483 11.7177 32.8809C11.7661 32.7134 11.6129 32.5209 11.371 32.4455C11.1613 32.3869 10.9274 32.4706 10.871 32.6381ZM14.4355 32.4957C14.2016 32.5543 14.0403 32.7134 14.0645 32.906C14.0887 33.0734 14.2984 33.1823 14.5403 33.1237C14.7742 33.0651 14.9355 32.906 14.9113 32.7385C14.8871 32.5795 14.6694 32.4706 14.4355 32.4957ZM19.7419 0.412292C8.55645 0.412292 0 9.22854 0 20.8412C0 30.1263 5.62903 38.0718 13.6694 40.8682C14.7016 41.0608 15.0645 40.3994 15.0645 39.8552C15.0645 39.3361 15.0403 36.4727 15.0403 34.7145C15.0403 34.7145 9.39516 35.9703 8.20968 32.2194C8.20968 32.2194 7.29032 29.783 5.96774 29.1551C5.96774 29.1551 4.12097 27.8406 6.09677 27.8657C6.09677 27.8657 8.10484 28.0332 9.20968 30.0258C10.9758 33.2576 13.9355 32.3283 15.0887 31.7757C15.2742 30.4361 15.7984 29.5068 16.379 28.9542C11.871 28.4351 7.32258 27.7569 7.32258 19.7025C7.32258 17.4001 7.93548 16.2447 9.22581 14.7711C9.01613 14.2269 8.33065 11.9831 9.43548 9.08621C11.121 8.542 15 11.3468 15 11.3468C16.6129 10.8779 18.3468 10.6351 20.0645 10.6351C21.7823 10.6351 23.5161 10.8779 25.129 11.3468C25.129 11.3468 29.0081 8.53362 30.6935 9.08621C31.7984 11.9915 31.1129 14.2269 30.9032 14.7711C32.1935 16.2531 32.9839 17.4085 32.9839 19.7025C32.9839 27.782 28.2339 28.4267 23.7258 28.9542C24.4677 29.6156 25.0968 30.8715 25.0968 32.839C25.0968 35.6605 25.0726 39.1519 25.0726 39.8384C25.0726 40.3826 25.4435 41.0441 26.4677 40.8515C34.5323 38.0718 40 30.1263 40 20.8412C40 9.22854 30.9274 0.412292 19.7419 0.412292ZM7.83871 29.2891C7.73387 29.3728 7.75806 29.5654 7.89516 29.7244C8.02419 29.8584 8.20968 29.917 8.31452 29.8082C8.41935 29.7244 8.39516 29.5319 8.25806 29.3728C8.12903 29.2388 7.94355 29.1802 7.83871 29.2891ZM6.96774 28.6109C6.91129 28.7197 6.99194 28.8537 7.15323 28.9374C7.28226 29.0211 7.44355 28.996 7.5 28.8788C7.55645 28.77 7.47581 28.636 7.31452 28.5523C7.15323 28.5021 7.02419 28.5272 6.96774 28.6109ZM9.58065 31.5915C9.45161 31.7003 9.5 31.9515 9.68548 32.1106C9.87097 32.3032 10.1048 32.3283 10.2097 32.1943C10.3145 32.0855 10.2661 31.8343 10.1048 31.6752C9.92742 31.4827 9.68548 31.4575 9.58065 31.5915ZM8.66129 30.3607C8.53226 30.4445 8.53226 30.6622 8.66129 30.8547C8.79032 31.0473 9.00806 31.131 9.1129 31.0473C9.24193 30.9385 9.24193 30.7208 9.1129 30.5282C9 30.3356 8.79032 30.2519 8.66129 30.3607Z" fill="white"/>
</svg>