<svg xmlns="http://www.w3.org/2000/svg" width="40" height="41" viewBox="0 0 40 41" fill="none">
  <path d="M39.064 10.5348C37.815 8.56171 22.4934 0.412292 19.9979 0.412292C17.5024 0.412292 2.17481 8.54115 0.933537 10.5348C-0.307731 12.5285 -0.314622 28.787 0.933537 30.7798C2.1817 32.7727 17.505 40.9024 19.9979 40.9024C22.4908 40.9024 37.815 32.7632 39.0631 30.7798C40.3113 28.7965 40.313 12.5119 39.064 10.5348ZM25.1637 33.1697C24.8191 33.1697 21.6397 30.3409 21.8904 30.11C21.9653 30.0412 22.4296 29.993 23.4021 29.9653C23.4021 27.891 23.453 24.5411 23.4831 23.1389C23.4831 22.9808 23.4452 22.8677 23.4452 22.6763H16.5601C16.5601 23.2378 16.5205 25.5391 16.6781 28.4398C16.6979 28.7988 16.542 28.9143 16.1837 28.9095C15.3111 28.9095 14.4376 28.9008 13.5642 28.9032C13.211 28.9032 13.0585 28.7822 13.0697 28.42C13.149 25.7755 13.3281 21.7771 13.0568 11.6016V11.3509C12.2238 11.3233 11.6458 11.2719 11.57 11.2054C11.3185 10.9745 14.5453 8.14574 14.8855 8.14574C15.2258 8.14574 18.4319 10.9753 18.1821 11.2054C18.1071 11.2742 17.5016 11.3233 16.7375 11.3509V11.6008C16.5291 13.6372 16.5652 17.895 16.511 19.9353H23.4245C23.4245 19.5755 23.4581 17.188 23.3212 13.3209C23.3125 13.0528 23.403 12.912 23.6838 12.9096C24.6374 12.9033 25.5918 12.8994 26.5462 12.9049C26.8443 12.9049 26.9399 13.0409 26.9338 13.3304C26.6169 28.458 26.8753 27.4022 26.8753 29.9645C27.6393 29.9922 28.3241 30.0436 28.3991 30.11C28.6472 30.3401 25.5031 33.1697 25.162 33.1697H25.1637Z" fill="white"/>
</svg>