<svg xmlns="http://www.w3.org/2000/svg" width="40" height="41" viewBox="0 0 40 41" fill="none">
  <path d="M37.1429 0.412292H2.84821C1.27679 0.412292 0 1.7228 0 3.33155V37.9831C0 39.5919 1.27679 40.9024 2.84821 40.9024H37.1429C38.7143 40.9024 40 39.5919 40 37.9831V3.33155C40 1.7228 38.7143 0.412292 37.1429 0.412292ZM12.0893 35.1181H6.16071V15.7949H12.0982V35.1181H12.0893ZM9.125 13.1558C7.22321 13.1558 5.6875 11.5923 5.6875 9.6762C5.6875 7.76015 7.22321 6.19659 9.125 6.19659C11.0179 6.19659 12.5625 7.76015 12.5625 9.6762C12.5625 11.6013 11.0268 13.1558 9.125 13.1558ZM34.3125 35.1181H28.3839V25.7186C28.3839 23.4772 28.3393 20.5941 25.3036 20.5941C22.2143 20.5941 21.7411 23.0343 21.7411 25.5559V35.1181H15.8125V15.7949H21.5V18.434H21.5804C22.375 16.9156 24.3125 15.3159 27.1964 15.3159C33.1964 15.3159 34.3125 19.3197 34.3125 24.5256V35.1181Z" fill="white"/>
</svg>