<svg xmlns="http://www.w3.org/2000/svg" width="40" height="41" viewBox="0 0 40 41" fill="none">
  <path d="M35.7143 0.412292H4.28571C1.91964 0.412292 0 2.35545 0 4.75051V36.5641C0 38.9592 1.91964 40.9024 4.28571 40.9024H35.7143C38.0804 40.9024 40 38.9592 40 36.5641V4.75051C40 2.35545 38.0804 0.412292 35.7143 0.412292ZM31.3482 14.7646C31.3661 15.0176 31.3661 15.2797 31.3661 15.5328C31.3661 23.3687 25.4732 32.3976 14.7054 32.3976C11.3839 32.3976 8.30357 31.4215 5.71429 29.7405C6.1875 29.7947 6.64286 29.8128 7.125 29.8128C9.86607 29.8128 12.3839 28.8728 14.3929 27.2821C11.8214 27.2279 9.66071 25.5197 8.91964 23.1699C9.82143 23.3054 10.6339 23.3054 11.5625 23.0614C8.88393 22.5101 6.875 20.1241 6.875 17.241V17.1687C7.65179 17.6115 8.5625 17.8827 9.51786 17.9188C8.71467 17.378 8.05623 16.6444 7.60131 15.7833C7.14639 14.9222 6.90914 13.9606 6.91071 12.9841C6.91071 11.8815 7.19643 10.8692 7.70536 9.99253C10.5893 13.5896 14.9196 15.9395 19.7768 16.1926C18.9464 12.1707 21.9196 8.90798 25.4911 8.90798C27.1786 8.90798 28.6964 9.62197 29.7679 10.7788C31.0893 10.5258 32.3571 10.0287 33.4821 9.35084C33.0446 10.7246 32.125 11.8815 30.9107 12.6135C32.0893 12.487 33.2321 12.1526 34.2857 11.6917C33.4911 12.8756 32.4911 13.924 31.3482 14.7646Z" fill="white"/>
</svg>